<svg width="217.4375px" height="59.6px" xmlns="http://www.w3.org/2000/svg" viewBox="141.28125 45.2 217.4375 59.6" style="background: rgba(0, 0, 0, 0);" preserveAspectRatio="xMidYMid"><defs><linearGradient id="editing-gradow-gradient" x1="0" x2="1" y1="0.5000000000000001" y2="0.4999999999999999" gradientUnits="objectBoundingBox"><stop offset="0" stop-color="#f0f"></stop><stop offset="1" stop-color="#0ff"></stop></linearGradient><filter id="editing-gradow-filter" x="-100%" y="-100%" width="300%" height="300%"><feFlood flood-color="#fffcd9" result="flood"></feFlood><feComposite operator="in" in2="SourceAlpha" in="flood" result="shadow"></feComposite><feOffset dx="-1.2" dy="1.2" in="SourceGraphic" result="offset-1"></feOffset><feOffset dx="1.2" dy="-1.2" in="shadow" result="offset-2"></feOffset><feMerge><feMergeNode in="offset-2"></feMergeNode><feMergeNode in="offset-1"></feMergeNode></feMerge></filter></defs><g filter="url(#editing-gradow-filter)"><g transform="translate(177.315007686615, 83.29000091552734)"><path d="M6.28 0L1.31 0L1.31-14.90L6.28-14.90L6.28 0ZM15.69-14.90L7.04-2.11L7.04-9.35L10.52-14.89L15.69-14.90ZM11.81-7.88L15.92 0L10.56 0L8.87-3.47L11.81-7.88ZM29.85-8.95L29.85-2.98L26.87 0L23.55 0L23.55-2.79L24.79-2.79L24.79-8.95L23.55-8.95L23.55-11.93L26.87-11.93L29.85-8.95ZM21.47-8.95L21.47-2.79L22.76-2.79L22.76 0L19.43 0L16.45-2.98L16.45-8.95L19.43-11.93L22.76-11.93L22.76-8.95L21.47-8.95ZM37.09 0L32.09 0L32.09-11.93L37.09-11.93L37.09 0ZM40.04 0L40.04-8.95L37.90-8.95L37.90-10.25L39.56-11.93L42.33-11.93L45.01-9.24L45.01 0L40.04 0ZM60.03 0L55.18 0L55.18-8.95L48.11-8.95L48.11-10.43L49.60-11.93L57.05-11.93L60.03-8.95L60.03 0ZM49.11-6.94L54.39-6.94L54.39-4.87L51.83-4.87L51.83-2.79L54.39-2.79L54.39-1.47L52.91 0L49.11 0L47.11-1.97L47.11-4.95L49.11-6.94ZM73.83 0L68.16 0L68.16-2.98L71.84-2.98L71.84-11.93L68.16-11.93L68.16-14.90L73.83-14.90L76.82-11.93L76.82-2.98L73.83 0ZM62.41 0L62.41-14.90L67.37-14.90L67.37 0L62.41 0ZM83.81-11.93L83.81 0L81.83 0L78.85-2.98L78.85-8.95L81.83-11.93L83.81-11.93ZM91.79-4.78L84.60-4.78L84.60-6.86L87.22-6.86L87.22-8.95L84.60-8.95L84.60-11.93L88.81-11.93L91.79-8.95L91.79-4.78ZM89.79 0L84.60 0L84.60-2.79L91.27-2.79L91.27-1.49L89.79 0ZM101.77-6.05L101.77-8.95L99.66-8.95L99.66-10.25L101.32-11.93L104.33-11.93L106.75-9.14L106.75-6.05L101.77-6.05ZM98.86 0L93.90 0L93.90-11.93L98.86-11.93L98.86 0ZM121.57-8.95L121.57-2.98L118.59 0L115.27 0L115.27-2.79L116.50-2.79L116.50-8.95L115.27-8.95L115.27-11.93L118.59-11.93L121.57-8.95ZM113.19-8.95L113.19-2.79L114.48-2.79L114.48 0L111.15 0L108.17-2.98L108.17-8.95L111.15-11.93L114.48-11.93L114.48-8.95L113.19-8.95ZM123.82 0L123.82-11.93L128.79-11.93L128.79 0L123.82 0ZM123.82-13.41L123.82-16.58L128.79-16.58L128.79-13.41L123.82-13.41ZM136.15 0L131.14 0L131.14-11.93L136.15-11.93L136.15 0ZM139.09 0L139.09-8.95L136.96-8.95L136.96-10.25L138.62-11.93L141.38-11.93L144.06-9.24L144.06 0L139.09 0Z" fill="url(#editing-gradow-gradient)"></path></g></g><style>text {
  font-size: 64px;
  font-family: Arial Black;
  dominant-baseline: central;
  text-anchor: middle;
}</style></svg>