<svg width="111" height="48" viewBox="0 0 111 48" fill="none" xmlns="http://www.w3.org/2000/svg">
<path d="M0 48V31.6788C0 30.9672 0.177913 30.3211 0.53374 29.7405C0.889567 29.1412 1.35776 28.6637 1.93832 28.3078C2.53761 27.952 3.19308 27.7741 3.90473 27.7741H16.2931C17.0048 27.7741 17.6602 27.952 18.2595 28.3078C18.8588 28.6637 19.3364 29.1412 19.6922 29.7405C20.048 30.3211 20.2259 30.9672 20.2259 31.6788V48H16.4898V41.2019H3.70809V48H0ZM3.70809 37.4938H16.4898V31.8474C16.4898 31.7537 16.4523 31.6788 16.3774 31.6226C16.3025 31.5477 16.2182 31.5103 16.1246 31.5103H4.04519C3.95155 31.5103 3.86728 31.5477 3.79237 31.6226C3.73618 31.6788 3.70809 31.7537 3.70809 31.8474V37.4938Z" fill="url(#paint0_linear_994_94)"/>
<path d="M30.771 48V40.4153L21.4446 27.7741H25.8269L32.6532 36.342L39.3952 27.7741H43.8617L34.5072 40.4434V48H30.771Z" fill="url(#paint0_linear_994_94)"/>
<path d="M45.594 48V27.7741H61.8871C62.5987 27.7741 63.2542 27.952 63.8535 28.3078C64.4528 28.6637 64.9303 29.1412 65.2862 29.7405C65.642 30.3211 65.8199 30.9672 65.8199 31.6788V44.0953C65.8199 44.807 65.642 45.4624 65.2862 46.0617C64.9303 46.6423 64.4528 47.1105 63.8535 47.4663C63.2542 47.8221 62.5987 48 61.8871 48H45.594ZM49.6111 44.2639H61.7185C61.8122 44.2639 61.8965 44.2358 61.9714 44.1796C62.0463 44.1047 62.0837 44.0204 62.0837 43.9268V31.8474C62.0837 31.7537 62.0463 31.6788 61.9714 31.6226C61.8965 31.5477 61.8122 31.5103 61.7185 31.5103H49.6111C49.5174 31.5103 49.4332 31.5477 49.3582 31.6226C49.3021 31.6788 49.274 31.7537 49.274 31.8474V43.9268C49.274 44.0204 49.3021 44.1047 49.3582 44.1796C49.4332 44.2358 49.5174 44.2639 49.6111 44.2639Z" fill="url(#paint0_linear_994_94)"/>
<path d="M69.0219 48V27.7741H87.6466V31.5103H72.7581V36.0049H84.7251V39.7692H72.7581V44.2639H87.6466V48H69.0219Z" fill="url(#paint0_linear_994_94)"/>
<path d="M90.4734 48V27.7741H94.5466L106.963 42.5503V27.7741H110.699V48H106.626L94.1814 33.1958V48H90.4734Z" fill="url(#paint0_linear_994_94)"/>
<path d="M0 20.2259V0H15.5066C16.2182 0 16.8643 0.177913 17.4449 0.53374C18.0442 0.889567 18.5217 1.36712 18.8775 1.96641C19.2334 2.54697 19.4113 3.19308 19.4113 3.90473V7.86565C19.4113 8.10911 19.3926 8.3432 19.3551 8.56794C19.3177 8.79267 19.2521 9.00804 19.1585 9.21404C19.4768 9.64478 19.7297 10.0942 19.9169 10.5624C20.1229 11.0306 20.2259 11.4988 20.2259 11.967V16.3212C20.2259 17.0329 20.048 17.6883 19.6922 18.2876C19.3364 18.8682 18.8588 19.3364 18.2595 19.6922C17.6602 20.048 17.0048 20.2259 16.2931 20.2259H0ZM4.04519 16.4898H16.1246C16.2182 16.4898 16.3025 16.4617 16.3774 16.4055C16.4523 16.3306 16.4898 16.2463 16.4898 16.1527V12.0209C16.4898 11.5827 16.4255 11.1445 16.2968 10.7063C16.1681 10.2681 15.9833 9.85812 15.7423 9.47644C15.5199 9.09476 15.2411 8.74239 14.9058 8.41934C14.5705 8.09629 14.1878 7.81146 13.7576 7.56485C13.487 7.8401 13.2022 8.09629 12.9032 8.3334C12.6237 8.57051 12.3326 8.77656 12.03 8.95156C11.7468 9.12656 11.4637 9.26338 11.1806 9.36201C10.8975 9.46165 10.6143 9.51211 10.3312 9.51341C9.84973 9.51341 9.42449 9.39352 9.05551 9.15364C8.68652 8.91376 8.3798 8.61275 8.13534 8.25061C7.89087 7.88847 7.71997 7.46759 7.62265 6.98797C7.52532 6.50834 7.48166 5.99347 7.48166 5.44336V3.90473C7.48166 3.81108 7.50975 3.73617 7.56593 3.68002C7.64085 3.60512 7.72512 3.56766 7.81875 3.56766H16.0431C16.1367 3.56766 16.221 3.60512 16.2959 3.68002C16.3708 3.73617 16.4082 3.81108 16.4082 3.90473V7.64118H3.70809V4.04519H15.8412C15.9359 4.04519 16.0201 4.01708 16.0951 3.96092C16.17 3.88599 16.2074 3.80172 16.2074 3.70808V3.90473C16.2074 3.44352 16.1194 3.00804 15.9434 2.5983C15.7673 2.18855 15.5509 1.81957 15.2941 1.49137C15.0373 1.16318 14.7423 0.88792 14.4091 0.665526C14.0759 0.443134 13.7165 0.274867 13.3311 0.160725C12.9456 0.0465845 12.5527 0 12.1524 0H4.04519C3.95155 0 3.86728 0.0374508 3.79237 0.112359C3.73618 0.168507 3.70809 0.24342 3.70809 0.337058V16.1527C3.70809 16.2463 3.73618 16.3306 3.79237 16.4055C3.86728 16.4617 3.95155 16.4898 4.04519 16.4898Z" fill="url(#paint0_linear_994_94)"/>
<path d="M54.6939 0H58.6715L64.6338 13.5644V0H68.3699V20.2259H64.3923L58.43 6.66152V20.2259H54.6939V0Z" fill="url(#paint0_linear_994_94)"/>
<path d="M70.1454 0H78.3034V3.73618H73.8816V7.64118H77.4558V11.3774H73.8816V16.4898H78.3034V20.2259H70.1454V0Z" fill="url(#paint0_linear_994_94)"/>
<path d="M80.5946 0H91.1841V3.73618H84.3308V7.64118H89.8942V11.3774H84.3308V16.4898H91.1841V20.2259H80.5946V0Z" fill="url(#paint0_linear_994_94)"/>
<path d="M93.0416 0H106.72V3.73618H96.7776V7.64118H105.115V11.3774H96.7776V16.4898H106.72V20.2259H93.0416V0Z" fill="url(#paint0_linear_994_94)"/>
<defs>
<linearGradient id="paint0_linear_994_94" x1="55.5" y1="0" x2="55.5" y2="48" gradientUnits="userSpaceOnUse">
<stop stop-color="#56C8D8"/>
<stop offset="1" stop-color="#30A2B2"/>
</linearGradient>
</defs>
</svg>
